<svg xmlns="http://www.w3.org/2000/svg" viewBox="0 0 64 64">
  <path
    fill="#123f6b"
    d="M10 43c-2.9 0-5 2.1-5 4.9S7.1 53 10 53h44c2.8 0 5-2.2 5-4.9S56.8 43 54 43c-1 0-2 .3-2.8.9-1.4-3.2-4.6-5.4-8.2-5.4H21.2c-3.6 0-6.8 2.2-8.2 5.4-.8-.6-1.8-.9-3-.9Z"
  />
  <path
    fill="#123f6b"
    d="M11.4 45.7c-3.8-1.3-6.7-4.8-7.3-8.9-.3-2.1-.3-5.2.3-7.4 1-3.4 3.4-5.8 6.5-5.8 1.8 0 3.2 1.3 3.2 3.1 0 1.8-1.4 3.2-3.2 3.2-1.2 0-1.9.8-2.3 2.3-.4 1.5-.4 3.8-.1 5.5.4 2.3 2 4.2 4.4 5.2Z"
  />
  <path
    fill="#123f6b"
    d="M52.6 45.7 49 43c2.4-1 4-2.9 4.4-5.2.3-1.7.3-4-.1-5.5-.4-1.5-1.1-2.3-2.3-2.3-1.8 0-3.2-1.4-3.2-3.2 0-1.8 1.4-3.1 3.2-3.1 3.1 0 5.5 2.4 6.5 5.8.6 2.2.6 5.3.3 7.4-.6 4.1-3.5 7.6-7.3 8.9Z"
  />
  <rect x="17" y="39.5" width="30" height="3.5" rx="1.75" fill="#98a7b5" />
  <rect x="20" y="30" width="28" height="2.8" rx="1.4" fill="#123f6b" />
  <rect x="31" y="13" width="2.6" height="25" rx="1.3" fill="#123f6b" />
  <path
    fill="#d9dde2"
    d="M33 17.5c10.6 0 16.1 4.2 16.1 14 0 5.2-1.5 9.6-4.3 13.1H20.1c3.3-4.2 5.4-8.2 5.4-14.1 0-5.1-1.4-9.4-4.1-13Z"
  />
  <g fill="#d9dde2">
    <circle cx="22.5" cy="40" r="2.2" />
    <circle cx="26.8" cy="40" r="2.2" />
    <circle cx="31.1" cy="40" r="2.2" />
    <circle cx="35.4" cy="40" r="2.2" />
    <circle cx="39.7" cy="40" r="2.2" />
    <circle cx="44" cy="40" r="2.2" />
  </g>
</svg>
